<?xml version="1.0" encoding="UTF-8" standalone="no"?>
<svg
   width="720pt"
   height="300pt"
   viewBox="0 0 720 300"
   version="1.1"
   id="svg465"
   sodipodi:docname="sin_plot.svg"
   inkscape:version="1.2.2 (732a01da63, 2022-12-09)"
   xmlns:inkscape="http://www.inkscape.org/namespaces/inkscape"
   xmlns:sodipodi="http://sodipodi.sourceforge.net/DTD/sodipodi-0.dtd"
   xmlns:xlink="http://www.w3.org/1999/xlink"
   xmlns="http://www.w3.org/2000/svg"
   xmlns:svg="http://www.w3.org/2000/svg"
   xmlns:rdf="http://www.w3.org/1999/02/22-rdf-syntax-ns#"
   xmlns:cc="http://creativecommons.org/ns#"
   xmlns:dc="http://purl.org/dc/elements/1.1/">
  <sodipodi:namedview
     id="namedview467"
     pagecolor="#ffffff"
     bordercolor="#000000"
     borderopacity="0.25"
     inkscape:showpageshadow="2"
     inkscape:pageopacity="0.0"
     inkscape:pagecheckerboard="0"
     inkscape:deskcolor="#d1d1d1"
     inkscape:document-units="pt"
     showgrid="false"
     inkscape:zoom="1.2895833"
     inkscape:cx="480.38772"
     inkscape:cy="192.31018"
     inkscape:window-width="1920"
     inkscape:window-height="1009"
     inkscape:window-x="-8"
     inkscape:window-y="-8"
     inkscape:window-maximized="1"
     inkscape:current-layer="svg465" />
  <metadata
     id="metadata2">
    <rdf:RDF>
      <cc:Work>
        <dc:type
           rdf:resource="http://purl.org/dc/dcmitype/StillImage" />
        <dc:date>2025-01-31T22:18:47.473053</dc:date>
        <dc:format>image/svg+xml</dc:format>
        <dc:creator>
          <cc:Agent>
            <dc:title>Matplotlib v3.10.0, https://matplotlib.org/</dc:title>
          </cc:Agent>
        </dc:creator>
      </cc:Work>
    </rdf:RDF>
  </metadata>
  <defs
     id="defs6">
    <style
       type="text/css"
       id="style4">*{stroke-linejoin: round; stroke-linecap: butt}</style>
  </defs>
  <g
     id="figure_1">
    <g
       id="patch_1">
      <path
         d="M 0,288 H 720 V 0 H 0 Z"
         style="fill:#ffffff"
         id="path8" />
    </g>
    <g
       id="axes_1">
      <g
         id="patch_2">
        <path
           d="M 90,256.32 H 648 V 34.56 H 90 Z"
           style="fill:#ffffff"
           id="path11" />
      </g>
      <g
         id="matplotlib.axis_1">
        <g
           id="xtick_1">
          <g
             id="line2d_1">
            <path
               d="M 90,256.32 V 34.56"
               clip-path="url(#p765fba50d3)"
               style="fill:none;stroke:#b0b0b0;stroke-width:0.8;stroke-linecap:square"
               id="path14" />
          </g>
          <g
             id="line2d_2">
            <defs
               id="defs18">
              <path
                 id="m14d85a928e"
                 d="M 0,0 V 3.5"
                 style="stroke:#000000;stroke-width:0.8" />
            </defs>
            <g
               id="g22">
              <use
                 xlink:href="#m14d85a928e"
                 x="90"
                 y="256.32001"
                 style="stroke:#000000;stroke-width:0.8"
                 id="use20" />
            </g>
          </g>
          <g
             id="text_1">
            <!-- 0.0π -->
            <g
               transform="matrix(0.14,0,0,-0.14,74.653594,273.95781)"
               id="g38">
              <defs
                 id="defs28">
                <path
                   id="DejaVuSans-30"
                   d="m 2034,4250 q -487,0 -733,-480 -245,-479 -245,-1442 0,-959 245,-1439 246,-480 733,-480 491,0 736,480 246,480 246,1439 0,963 -246,1442 -245,480 -736,480 z m 0,500 q 785,0 1199,-621 414,-620 414,-1801 0,-1178 -414,-1799 -414,-620 -1199,-620 -784,0 -1198,620 -414,621 -414,1799 0,1181 414,1801 414,621 1198,621 z"
                   transform="scale(0.015625)" />
                <path
                   id="DejaVuSans-2e"
                   d="m 684,794 h 660 V 0 H 684 Z"
                   transform="scale(0.015625)" />
                <path
                   id="DejaVuSans-3c0"
                   d="M 231,3500 H 3584 V 2925 H 3144 V 775 q 0,-225 76,-324 77,-98 249,-98 47,0 115,8 69,8 91,11 V -44 q -109,-40 -225,-59 -116,-19 -231,-19 -375,0 -519,205 -144,205 -144,755 V 2925 H 1266 V 0 H 678 V 2925 H 231 Z"
                   transform="scale(0.015625)" />
              </defs>
              <use
                 xlink:href="#DejaVuSans-30"
                 id="use30" />
              <use
                 xlink:href="#DejaVuSans-2e"
                 transform="translate(63.623047)"
                 id="use32" />
              <use
                 xlink:href="#DejaVuSans-30"
                 transform="translate(95.410156)"
                 id="use34" />
              <use
                 xlink:href="#DejaVuSans-3c0"
                 transform="translate(159.0332)"
                 id="use36" />
            </g>
          </g>
        </g>
        <g
           id="xtick_2">
          <g
             id="line2d_3">
            <path
               d="M 159.75,256.32 V 34.56"
               clip-path="url(#p765fba50d3)"
               style="fill:none;stroke:#b0b0b0;stroke-width:0.8;stroke-linecap:square"
               id="path42" />
          </g>
          <g
             id="line2d_4">
            <g
               id="g47">
              <use
                 xlink:href="#m14d85a928e"
                 x="159.75"
                 y="256.32001"
                 style="stroke:#000000;stroke-width:0.8"
                 id="use45" />
            </g>
          </g>
          <g
             id="text_2">
            <!-- 0.5π -->
            <g
               transform="matrix(0.14,0,0,-0.14,144.40359,273.95781)"
               id="g61">
              <defs
                 id="defs51">
                <path
                   id="DejaVuSans-35"
                   d="M 691,4666 H 3169 V 4134 H 1269 V 2991 q 137,47 274,70 138,23 276,23 781,0 1237,-428 457,-428 457,-1159 Q 3513,744 3044,326 2575,-91 1722,-91 1428,-91 1123,-41 819,9 494,109 v 635 q 281,-153 581,-228 300,-75 634,-75 541,0 856,284 316,284 316,772 0,487 -316,771 -315,285 -856,285 -253,0 -505,-56 -251,-56 -513,-175 z"
                   transform="scale(0.015625)" />
              </defs>
              <use
                 xlink:href="#DejaVuSans-30"
                 id="use53" />
              <use
                 xlink:href="#DejaVuSans-2e"
                 transform="translate(63.623047)"
                 id="use55" />
              <use
                 xlink:href="#DejaVuSans-35"
                 transform="translate(95.410156)"
                 id="use57" />
              <use
                 xlink:href="#DejaVuSans-3c0"
                 transform="translate(159.0332)"
                 id="use59" />
            </g>
          </g>
        </g>
        <g
           id="xtick_3">
          <g
             id="line2d_5">
            <path
               d="M 229.5,256.32 V 34.56"
               clip-path="url(#p765fba50d3)"
               style="fill:none;stroke:#b0b0b0;stroke-width:0.8;stroke-linecap:square"
               id="path65" />
          </g>
          <g
             id="line2d_6">
            <g
               id="g70">
              <use
                 xlink:href="#m14d85a928e"
                 x="229.5"
                 y="256.32001"
                 style="stroke:#000000;stroke-width:0.8"
                 id="use68" />
            </g>
          </g>
          <g
             id="text_3">
            <!-- 1.0π -->
            <g
               transform="matrix(0.14,0,0,-0.14,214.15359,273.95781)"
               id="g84">
              <defs
                 id="defs74">
                <path
                   id="DejaVuSans-31"
                   d="M 794,531 H 1825 V 4091 L 703,3866 v 575 l 1116,225 h 631 V 531 H 3481 V 0 H 794 Z"
                   transform="scale(0.015625)" />
              </defs>
              <use
                 xlink:href="#DejaVuSans-31"
                 id="use76" />
              <use
                 xlink:href="#DejaVuSans-2e"
                 transform="translate(63.623047)"
                 id="use78" />
              <use
                 xlink:href="#DejaVuSans-30"
                 transform="translate(95.410156)"
                 id="use80" />
              <use
                 xlink:href="#DejaVuSans-3c0"
                 transform="translate(159.0332)"
                 id="use82" />
            </g>
          </g>
        </g>
        <g
           id="xtick_4">
          <g
             id="line2d_7">
            <path
               d="M 299.25,256.32 V 34.56"
               clip-path="url(#p765fba50d3)"
               style="fill:none;stroke:#b0b0b0;stroke-width:0.8;stroke-linecap:square"
               id="path88" />
          </g>
          <g
             id="line2d_8">
            <g
               id="g93">
              <use
                 xlink:href="#m14d85a928e"
                 x="299.25"
                 y="256.32001"
                 style="stroke:#000000;stroke-width:0.8"
                 id="use91" />
            </g>
          </g>
          <g
             id="text_4">
            <!-- 1.5π -->
            <g
               transform="matrix(0.14,0,0,-0.14,283.90359,273.95781)"
               id="g104">
              <use
                 xlink:href="#DejaVuSans-31"
                 id="use96" />
              <use
                 xlink:href="#DejaVuSans-2e"
                 transform="translate(63.623047)"
                 id="use98" />
              <use
                 xlink:href="#DejaVuSans-35"
                 transform="translate(95.410156)"
                 id="use100" />
              <use
                 xlink:href="#DejaVuSans-3c0"
                 transform="translate(159.0332)"
                 id="use102" />
            </g>
          </g>
        </g>
        <g
           id="xtick_5">
          <g
             id="line2d_9">
            <path
               d="M 369,256.32 V 34.56"
               clip-path="url(#p765fba50d3)"
               style="fill:none;stroke:#b0b0b0;stroke-width:0.8;stroke-linecap:square"
               id="path108" />
          </g>
          <g
             id="line2d_10">
            <g
               id="g113">
              <use
                 xlink:href="#m14d85a928e"
                 x="369"
                 y="256.32001"
                 style="stroke:#000000;stroke-width:0.8"
                 id="use111" />
            </g>
          </g>
          <g
             id="text_5">
            <!-- 2.0π -->
            <g
               transform="matrix(0.14,0,0,-0.14,353.65359,273.95781)"
               id="g127">
              <defs
                 id="defs117">
                <path
                   id="DejaVuSans-32"
                   d="M 1228,531 H 3431 V 0 H 469 v 531 q 359,372 979,998 621,627 780,809 303,340 423,576 121,236 121,464 0,372 -261,606 -261,235 -680,235 -297,0 -627,-103 -329,-103 -704,-313 v 638 q 381,153 712,231 332,78 607,78 725,0 1156,-363 431,-362 431,-968 0,-288 -108,-546 -107,-257 -392,-607 -78,-91 -497,-524 Q 1991,1309 1228,531 Z"
                   transform="scale(0.015625)" />
              </defs>
              <use
                 xlink:href="#DejaVuSans-32"
                 id="use119" />
              <use
                 xlink:href="#DejaVuSans-2e"
                 transform="translate(63.623047)"
                 id="use121" />
              <use
                 xlink:href="#DejaVuSans-30"
                 transform="translate(95.410156)"
                 id="use123" />
              <use
                 xlink:href="#DejaVuSans-3c0"
                 transform="translate(159.0332)"
                 id="use125" />
            </g>
          </g>
        </g>
        <g
           id="xtick_6">
          <g
             id="line2d_11">
            <path
               d="M 438.75,256.32 V 34.56"
               clip-path="url(#p765fba50d3)"
               style="fill:none;stroke:#b0b0b0;stroke-width:0.8;stroke-linecap:square"
               id="path131" />
          </g>
          <g
             id="line2d_12">
            <g
               id="g136">
              <use
                 xlink:href="#m14d85a928e"
                 x="438.75"
                 y="256.32001"
                 style="stroke:#000000;stroke-width:0.8"
                 id="use134" />
            </g>
          </g>
          <g
             id="text_6">
            <!-- 2.5π -->
            <g
               transform="matrix(0.14,0,0,-0.14,423.40359,273.95781)"
               id="g147">
              <use
                 xlink:href="#DejaVuSans-32"
                 id="use139" />
              <use
                 xlink:href="#DejaVuSans-2e"
                 transform="translate(63.623047)"
                 id="use141" />
              <use
                 xlink:href="#DejaVuSans-35"
                 transform="translate(95.410156)"
                 id="use143" />
              <use
                 xlink:href="#DejaVuSans-3c0"
                 transform="translate(159.0332)"
                 id="use145" />
            </g>
          </g>
        </g>
        <g
           id="xtick_7">
          <g
             id="line2d_13">
            <path
               d="M 508.5,256.32 V 34.56"
               clip-path="url(#p765fba50d3)"
               style="fill:none;stroke:#b0b0b0;stroke-width:0.8;stroke-linecap:square"
               id="path151" />
          </g>
          <g
             id="line2d_14">
            <g
               id="g156">
              <use
                 xlink:href="#m14d85a928e"
                 x="508.5"
                 y="256.32001"
                 style="stroke:#000000;stroke-width:0.8"
                 id="use154" />
            </g>
          </g>
          <g
             id="text_7">
            <!-- 3.0π -->
            <g
               transform="matrix(0.14,0,0,-0.14,493.15359,273.95781)"
               id="g170">
              <defs
                 id="defs160">
                <path
                   id="DejaVuSans-33"
                   d="m 2597,2516 q 453,-97 707,-404 255,-306 255,-756 0,-690 -475,-1069 -475,-378 -1350,-378 -293,0 -604,58 -311,58 -642,174 v 609 q 262,-153 574,-231 313,-78 654,-78 593,0 904,234 311,234 311,681 0,413 -289,645 -289,233 -804,233 h -544 v 519 h 569 q 465,0 712,186 247,186 247,536 0,359 -255,551 -254,193 -729,193 -260,0 -557,-57 -297,-56 -653,-174 v 562 q 360,100 674,150 314,50 592,50 719,0 1137,-327 419,-326 419,-882 0,-388 -222,-655 -222,-267 -631,-370 z"
                   transform="scale(0.015625)" />
              </defs>
              <use
                 xlink:href="#DejaVuSans-33"
                 id="use162" />
              <use
                 xlink:href="#DejaVuSans-2e"
                 transform="translate(63.623047)"
                 id="use164" />
              <use
                 xlink:href="#DejaVuSans-30"
                 transform="translate(95.410156)"
                 id="use166" />
              <use
                 xlink:href="#DejaVuSans-3c0"
                 transform="translate(159.0332)"
                 id="use168" />
            </g>
          </g>
        </g>
        <g
           id="xtick_8">
          <g
             id="line2d_15">
            <path
               d="M 578.25,256.32 V 34.56"
               clip-path="url(#p765fba50d3)"
               style="fill:none;stroke:#b0b0b0;stroke-width:0.8;stroke-linecap:square"
               id="path174" />
          </g>
          <g
             id="line2d_16">
            <g
               id="g179">
              <use
                 xlink:href="#m14d85a928e"
                 x="578.25"
                 y="256.32001"
                 style="stroke:#000000;stroke-width:0.8"
                 id="use177" />
            </g>
          </g>
          <g
             id="text_8">
            <!-- 3.5π -->
            <g
               transform="matrix(0.14,0,0,-0.14,562.90359,273.95781)"
               id="g190">
              <use
                 xlink:href="#DejaVuSans-33"
                 id="use182" />
              <use
                 xlink:href="#DejaVuSans-2e"
                 transform="translate(63.623047)"
                 id="use184" />
              <use
                 xlink:href="#DejaVuSans-35"
                 transform="translate(95.410156)"
                 id="use186" />
              <use
                 xlink:href="#DejaVuSans-3c0"
                 transform="translate(159.0332)"
                 id="use188" />
            </g>
          </g>
        </g>
        <g
           id="xtick_9">
          <g
             id="line2d_17">
            <path
               d="M 648,256.32 V 34.56"
               clip-path="url(#p765fba50d3)"
               style="fill:none;stroke:#b0b0b0;stroke-width:0.8;stroke-linecap:square"
               id="path194" />
          </g>
          <g
             id="line2d_18">
            <g
               id="g199">
              <use
                 xlink:href="#m14d85a928e"
                 x="648"
                 y="256.32001"
                 style="stroke:#000000;stroke-width:0.8"
                 id="use197" />
            </g>
          </g>
          <g
             id="text_9">
            <!-- 4.0π -->
            <g
               transform="matrix(0.14,0,0,-0.14,632.65359,273.95781)"
               id="g213">
              <defs
                 id="defs203">
                <path
                   id="DejaVuSans-34"
                   d="M 2419,4116 825,1625 h 1594 z m -166,550 h 794 V 1625 h 666 V 1100 H 3047 V 0 H 2419 V 1100 H 313 v 609 z"
                   transform="scale(0.015625)" />
              </defs>
              <use
                 xlink:href="#DejaVuSans-34"
                 id="use205" />
              <use
                 xlink:href="#DejaVuSans-2e"
                 transform="translate(63.623047)"
                 id="use207" />
              <use
                 xlink:href="#DejaVuSans-30"
                 transform="translate(95.410156)"
                 id="use209" />
              <use
                 xlink:href="#DejaVuSans-3c0"
                 transform="translate(159.0332)"
                 id="use211" />
            </g>
          </g>
        </g>
        <g
           id="text_10">
          <!-- θ -->
          <g
             transform="matrix(0.18,0,0,-0.18,363.49313,294.54656)"
             id="g222">
            <defs
               id="defs218">
              <path
                 id="DejaVuSans-3b8"
                 d="M 2953,2219 H 963 q 46,-935 262,-1331 269,-488 734,-488 469,0 729,491 228,431 265,1328 z m -9,531 q -88,888 -256,1200 -269,494 -729,494 -478,0 -731,-488 -200,-393 -259,-1206 z m -985,2163 q 750,0 1179,-663 428,-659 428,-1828 0,-1166 -428,-1828 -429,-666 -1179,-666 -753,0 -1178,666 -428,662 -428,1828 0,1169 428,1828 425,663 1178,663 z"
                 transform="scale(0.015625)" />
            </defs>
            <use
               xlink:href="#DejaVuSans-3b8"
               id="use220" />
          </g>
        </g>
      </g>
      <g
         id="matplotlib.axis_2">
        <g
           id="ytick_1">
          <g
             id="line2d_19">
            <path
               d="M 90,246.24 H 648"
               clip-path="url(#p765fba50d3)"
               style="fill:none;stroke:#b0b0b0;stroke-width:0.8;stroke-linecap:square"
               id="path226" />
          </g>
          <g
             id="line2d_20">
            <defs
               id="defs230">
              <path
                 id="m9ef2cfc26c"
                 d="M 0,0 H -3.5"
                 style="stroke:#000000;stroke-width:0.8" />
            </defs>
            <g
               id="g234">
              <use
                 xlink:href="#m9ef2cfc26c"
                 x="90"
                 y="246.24001"
                 style="stroke:#000000;stroke-width:0.8"
                 id="use232" />
            </g>
          </g>
          <g
             id="text_11">
            <!-- −1.0 -->
            <g
               transform="matrix(0.14,0,0,-0.14,49.004062,251.55891)"
               id="g248">
              <defs
                 id="defs238">
                <path
                   id="DejaVuSans-2212"
                   d="M 678,2272 H 4684 V 1741 H 678 Z"
                   transform="scale(0.015625)" />
              </defs>
              <use
                 xlink:href="#DejaVuSans-2212"
                 id="use240" />
              <use
                 xlink:href="#DejaVuSans-31"
                 transform="translate(83.789062)"
                 id="use242" />
              <use
                 xlink:href="#DejaVuSans-2e"
                 transform="translate(147.41211)"
                 id="use244" />
              <use
                 xlink:href="#DejaVuSans-30"
                 transform="translate(179.19922)"
                 id="use246" />
            </g>
          </g>
        </g>
        <g
           id="ytick_2">
          <g
             id="line2d_21">
            <path
               d="M 90,195.84 H 648"
               clip-path="url(#p765fba50d3)"
               style="fill:none;stroke:#b0b0b0;stroke-width:0.8;stroke-linecap:square"
               id="path252" />
          </g>
          <g
             id="line2d_22">
            <g
               id="g257">
              <use
                 xlink:href="#m9ef2cfc26c"
                 x="90"
                 y="195.84"
                 style="stroke:#000000;stroke-width:0.8"
                 id="use255" />
            </g>
          </g>
          <g
             id="text_12">
            <!-- −0.5 -->
            <g
               transform="matrix(0.14,0,0,-0.14,49.004062,201.15891)"
               id="g268">
              <use
                 xlink:href="#DejaVuSans-2212"
                 id="use260" />
              <use
                 xlink:href="#DejaVuSans-30"
                 transform="translate(83.789062)"
                 id="use262" />
              <use
                 xlink:href="#DejaVuSans-2e"
                 transform="translate(147.41211)"
                 id="use264" />
              <use
                 xlink:href="#DejaVuSans-35"
                 transform="translate(179.19922)"
                 id="use266" />
            </g>
          </g>
        </g>
        <g
           id="ytick_3">
          <g
             id="line2d_23">
            <path
               d="M 90,145.44 H 648"
               clip-path="url(#p765fba50d3)"
               style="fill:none;stroke:#b0b0b0;stroke-width:0.8;stroke-linecap:square"
               id="path272" />
          </g>
          <g
             id="line2d_24">
            <g
               id="g277">
              <use
                 xlink:href="#m9ef2cfc26c"
                 x="90"
                 y="145.44"
                 style="stroke:#000000;stroke-width:0.8"
                 id="use275" />
            </g>
          </g>
          <g
             id="text_13">
            <!-- 0.0 -->
            <g
               transform="matrix(0.14,0,0,-0.14,60.735625,150.75891)"
               id="g286">
              <use
                 xlink:href="#DejaVuSans-30"
                 id="use280" />
              <use
                 xlink:href="#DejaVuSans-2e"
                 transform="translate(63.623047)"
                 id="use282" />
              <use
                 xlink:href="#DejaVuSans-30"
                 transform="translate(95.410156)"
                 id="use284" />
            </g>
          </g>
        </g>
        <g
           id="ytick_4">
          <g
             id="line2d_25">
            <path
               d="M 90,95.04 H 648"
               clip-path="url(#p765fba50d3)"
               style="fill:none;stroke:#b0b0b0;stroke-width:0.8;stroke-linecap:square"
               id="path290" />
          </g>
          <g
             id="line2d_26">
            <g
               id="g295">
              <use
                 xlink:href="#m9ef2cfc26c"
                 x="90"
                 y="95.040001"
                 style="stroke:#000000;stroke-width:0.8"
                 id="use293" />
            </g>
          </g>
          <g
             id="text_14">
            <!-- 0.5 -->
            <g
               transform="matrix(0.14,0,0,-0.14,60.735625,100.35891)"
               id="g304">
              <use
                 xlink:href="#DejaVuSans-30"
                 id="use298" />
              <use
                 xlink:href="#DejaVuSans-2e"
                 transform="translate(63.623047)"
                 id="use300" />
              <use
                 xlink:href="#DejaVuSans-35"
                 transform="translate(95.410156)"
                 id="use302" />
            </g>
          </g>
        </g>
        <g
           id="ytick_5">
          <g
             id="line2d_27">
            <path
               d="M 90,44.64 H 648"
               clip-path="url(#p765fba50d3)"
               style="fill:none;stroke:#b0b0b0;stroke-width:0.8;stroke-linecap:square"
               id="path308" />
          </g>
          <g
             id="line2d_28">
            <g
               id="g313">
              <use
                 xlink:href="#m9ef2cfc26c"
                 x="90"
                 y="44.639999"
                 style="stroke:#000000;stroke-width:0.8"
                 id="use311" />
            </g>
          </g>
          <g
             id="text_15">
            <!-- 1.0 -->
            <g
               transform="matrix(0.14,0,0,-0.14,60.735625,49.958906)"
               id="g322">
              <use
                 xlink:href="#DejaVuSans-31"
                 id="use316" />
              <use
                 xlink:href="#DejaVuSans-2e"
                 transform="translate(63.623047)"
                 id="use318" />
              <use
                 xlink:href="#DejaVuSans-30"
                 transform="translate(95.410156)"
                 id="use320" />
            </g>
          </g>
        </g>
        <g
           id="text_16">
          <!-- sin$_\mathregular{rad}$(θ) -->
          <g
             transform="matrix(0,-0.18,-0.18,0,41.260625,181.71)"
             id="g354">
            <defs
               id="defs334">
              <path
                 id="DejaVuSans-73"
                 d="m 2834,3397 v -544 q -243,125 -506,187 -262,63 -544,63 -428,0 -642,-131 -214,-131 -214,-394 0,-200 153,-314 153,-114 616,-217 l 197,-44 q 612,-131 870,-370 258,-239 258,-667 0,-488 -386,-773 Q 2250,-91 1575,-91 1294,-91 989,-36 684,19 347,128 v 594 q 319,-166 628,-249 309,-82 613,-82 406,0 624,139 219,139 219,392 0,234 -158,359 -157,125 -692,241 l -200,47 q -534,112 -772,345 -237,233 -237,639 0,494 350,762 350,269 994,269 318,0 599,-47 282,-46 519,-140 z"
                 transform="scale(0.015625)" />
              <path
                 id="DejaVuSans-69"
                 d="m 603,3500 h 575 V 0 H 603 Z m 0,1363 h 575 V 4134 H 603 Z"
                 transform="scale(0.015625)" />
              <path
                 id="DejaVuSans-6e"
                 d="M 3513,2113 V 0 h -575 v 2094 q 0,497 -194,743 -194,247 -581,247 -466,0 -735,-297 -269,-296 -269,-809 V 0 H 581 v 3500 h 578 v -544 q 207,316 486,472 280,156 646,156 603,0 912,-373 310,-373 310,-1098 z"
                 transform="scale(0.015625)" />
              <path
                 id="DejaVuSans-72"
                 d="m 2631,2963 q -97,56 -211,82 -114,27 -251,27 -488,0 -749,-317 -261,-317 -261,-911 V 0 H 581 v 3500 h 578 v -544 q 182,319 472,473 291,155 707,155 59,0 131,-8 72,-7 159,-23 z"
                 transform="scale(0.015625)" />
              <path
                 id="DejaVuSans-61"
                 d="m 2194,1759 q -697,0 -966,-159 -269,-159 -269,-544 0,-306 202,-486 202,-179 548,-179 479,0 768,339 289,339 289,901 v 128 z m 1147,238 V 0 H 2766 V 531 Q 2569,213 2275,61 1981,-91 1556,-91 q -537,0 -855,302 -317,302 -317,808 0,590 395,890 396,300 1180,300 h 807 v 57 q 0,397 -261,614 -261,217 -733,217 -300,0 -585,-72 -284,-72 -546,-216 v 532 q 315,122 612,182 297,61 578,61 760,0 1135,-394 375,-393 375,-1193 z"
                 transform="scale(0.015625)" />
              <path
                 id="DejaVuSans-64"
                 d="m 2906,2969 v 1894 h 575 V 0 H 2906 V 525 Q 2725,213 2448,61 2172,-91 1784,-91 1150,-91 751,415 353,922 353,1747 q 0,825 398,1331 399,506 1033,506 388,0 664,-152 277,-151 458,-463 z M 947,1747 q 0,-634 261,-995 261,-361 717,-361 456,0 718,361 263,361 263,995 0,634 -263,995 -262,361 -718,361 -456,0 -717,-361 -261,-361 -261,-995 z"
                 transform="scale(0.015625)" />
              <path
                 id="DejaVuSans-28"
                 d="m 1984,4856 q -418,-718 -622,-1422 -203,-703 -203,-1425 0,-721 205,-1429 205,-708 620,-1424 h -500 q -468,735 -701,1444 -233,709 -233,1409 0,697 231,1403 232,707 703,1444 z"
                 transform="scale(0.015625)" />
              <path
                 id="DejaVuSans-29"
                 d="m 513,4856 h 500 q 468,-737 701,-1444 233,-706 233,-1403 0,-700 -233,-1409 -233,-709 -701,-1444 H 513 q 415,716 620,1424 205,708 205,1429 0,722 -205,1425 -205,704 -620,1422 z"
                 transform="scale(0.015625)" />
            </defs>
            <use
               xlink:href="#DejaVuSans-73"
               transform="translate(0,0.234375)"
               id="use336" />
            <use
               xlink:href="#DejaVuSans-69"
               transform="translate(52.099609,0.234375)"
               id="use338" />
            <use
               xlink:href="#DejaVuSans-6e"
               transform="translate(79.882812,0.234375)"
               id="use340" />
            <use
               xlink:href="#DejaVuSans-72"
               transform="matrix(0.7,0,0,0.7,144.21875,-16.171875)"
               id="use342" />
            <use
               xlink:href="#DejaVuSans-61"
               transform="matrix(0.7,0,0,0.7,172.99805,-16.171875)"
               id="use344" />
            <use
               xlink:href="#DejaVuSans-64"
               transform="matrix(0.7,0,0,0.7,215.89355,-16.171875)"
               id="use346" />
            <use
               xlink:href="#DejaVuSans-28"
               transform="translate(263.06152,0.234375)"
               id="use348" />
            <use
               xlink:href="#DejaVuSans-3b8"
               transform="translate(302.07519,0.234375)"
               id="use350" />
            <use
               xlink:href="#DejaVuSans-29"
               transform="translate(363.25684,0.234375)"
               id="use352" />
          </g>
        </g>
      </g>
      <g
         id="line2d_29">
        <path
           d="m 90,145.44 5.58,-12.63359 5.58,-12.43435 5.58,-12.03901 5.58,-11.45382 5.58,-10.687983 5.58,-9.753595 5.58,-8.665387 5.58,-7.44052 5.58,-6.098312 5.58,-4.65993 5.58,-3.148058 5.58,-1.586539 h 5.58 l 5.58,1.586539 5.58,3.148058 5.58,4.65993 5.58,6.098312 5.58,7.44052 5.58,8.665387 5.58,9.753595 5.58,10.687983 5.58,11.45382 5.58,12.03901 5.58,12.43435 5.58,12.63359 5.58,12.63359 5.58,12.43435 5.58,12.03901 5.58,11.45382 5.58,10.68798 5.58,9.7536 5.58,8.66538 5.58,7.44052 5.58,6.09832 5.58,4.65993 5.58,3.14805 5.58,1.58654 h 5.58 l 5.58,-1.58654 5.58,-3.14805 5.58,-4.65993 5.58,-6.09832 5.58,-7.44052 5.58,-8.66538 5.58,-9.7536 5.58,-10.68798 5.58,-11.45382 5.58,-12.03901 5.58,-12.43435 5.58,-12.63359 5.58,-12.63359 5.58,-12.43435 5.58,-12.03901 5.58,-11.45382 5.58,-10.687983 5.58,-9.753595 5.58,-8.665387 5.58,-7.44052 5.58,-6.098312 5.58,-4.65993 5.58,-3.148058 5.58,-1.586539 h 5.58 l 5.58,1.586539 5.58,3.148058 5.58,4.65993 5.58,6.098312 5.58,7.44052 5.58,8.665387 5.58,9.753595 5.58,10.687983 5.58,11.45382 5.58,12.03901 5.58,12.43435 5.58,12.63359 5.58,12.63359 5.58,12.43435 5.58,12.03901 5.58,11.45382 5.58,10.68798 5.58,9.7536 5.58,8.66538 5.58,7.44052 5.58,6.09832 5.58,4.65993 5.58,3.14805 5.58,1.58654 h 5.58 l 5.58,-1.58654 5.58,-3.14805 5.58,-4.65993 5.58,-6.09832 5.58,-7.44052 5.58,-8.66538 5.58,-9.7536 5.58,-10.68798 5.58,-11.45382 5.58,-12.03901 5.58,-12.43435 L 648,145.44"
           clip-path="url(#p765fba50d3)"
           style="fill:none;stroke:#1f77b4;stroke-width:1.5;stroke-linecap:square"
           id="path358" />
      </g>
      <g
         id="patch_3">
        <path
           d="M 90,256.32 V 34.56"
           style="fill:none;stroke:#000000;stroke-width:0.8;stroke-linecap:square;stroke-linejoin:miter"
           id="path361" />
      </g>
      <g
         id="patch_4">
        <path
           d="M 648,256.32 V 34.56"
           style="fill:none;stroke:#000000;stroke-width:0.8;stroke-linecap:square;stroke-linejoin:miter"
           id="path364" />
      </g>
      <g
         id="patch_5">
        <path
           d="M 90,256.32 H 648"
           style="fill:none;stroke:#000000;stroke-width:0.8;stroke-linecap:square;stroke-linejoin:miter"
           id="path367" />
      </g>
      <g
         id="patch_6">
        <path
           d="M 90,34.56 H 648"
           style="fill:none;stroke:#000000;stroke-width:0.8;stroke-linecap:square;stroke-linejoin:miter"
           id="path370" />
      </g>
      <g
         id="text_17">
        <!-- The sinusoidal function (in radian) -->
        <g
           transform="matrix(0.2,0,0,-0.2,198.06719,28.56)"
           id="g455">
          <defs
             id="defs383">
            <path
               id="DejaVuSans-54"
               d="M -19,4666 H 3928 V 4134 H 2272 V 0 H 1638 V 4134 H -19 Z"
               transform="scale(0.015625)" />
            <path
               id="DejaVuSans-68"
               d="M 3513,2113 V 0 h -575 v 2094 q 0,497 -194,743 -194,247 -581,247 -466,0 -735,-297 -269,-296 -269,-809 V 0 H 581 v 4863 h 578 V 2956 q 207,316 486,472 280,156 646,156 603,0 912,-373 310,-373 310,-1098 z"
               transform="scale(0.015625)" />
            <path
               id="DejaVuSans-65"
               d="M 3597,1894 V 1613 H 953 q 38,-594 358,-905 320,-311 892,-311 331,0 642,81 311,81 618,244 V 178 Q 3153,47 2828,-22 2503,-91 2169,-91 1331,-91 842,396 353,884 353,1716 q 0,859 464,1363 464,505 1252,505 706,0 1117,-455 411,-454 411,-1235 z m -575,169 q -6,471 -264,752 -258,282 -683,282 -481,0 -770,-272 -289,-272 -333,-766 z"
               transform="scale(0.015625)" />
            <path
               id="DejaVuSans-20"
               transform="scale(0.015625)"
               d="" />
            <path
               id="DejaVuSans-75"
               d="m 544,1381 v 2119 h 575 V 1403 q 0,-497 193,-746 194,-248 582,-248 465,0 735,297 271,297 271,810 v 1984 h 575 V 0 H 2900 V 538 Q 2691,219 2414,64 2138,-91 1772,-91 1169,-91 856,284 544,659 544,1381 Z m 1447,2203 z"
               transform="scale(0.015625)" />
            <path
               id="DejaVuSans-6f"
               d="m 1959,3097 q -462,0 -731,-361 -269,-361 -269,-989 0,-628 267,-989 268,-361 733,-361 460,0 728,362 269,363 269,988 0,622 -269,986 -268,364 -728,364 z m 0,487 q 750,0 1178,-488 429,-487 429,-1349 Q 3566,888 3137,398 2709,-91 1959,-91 1206,-91 779,398 353,888 353,1747 q 0,862 426,1349 427,488 1180,488 z"
               transform="scale(0.015625)" />
            <path
               id="DejaVuSans-6c"
               d="m 603,4863 h 575 V 0 H 603 Z"
               transform="scale(0.015625)" />
            <path
               id="DejaVuSans-66"
               d="m 2375,4863 v -479 h -550 q -309,0 -430,-125 -120,-125 -120,-450 v -309 h 947 V 3053 H 1275 V 0 H 697 V 3053 H 147 v 447 h 550 v 244 q 0,584 272,851 272,268 862,268 z"
               transform="scale(0.015625)" />
            <path
               id="DejaVuSans-63"
               d="m 3122,3366 v -538 q -244,135 -489,202 -245,67 -495,67 -560,0 -870,-355 -309,-354 -309,-995 0,-641 309,-996 310,-354 870,-354 250,0 495,67 245,67 489,202 V 134 Q 2881,22 2623,-34 2366,-91 2075,-91 1284,-91 818,406 353,903 353,1747 q 0,856 470,1346 471,491 1290,491 265,0 518,-55 253,-54 491,-163 z"
               transform="scale(0.015625)" />
            <path
               id="DejaVuSans-74"
               d="M 1172,4494 V 3500 H 2356 V 3053 H 1172 V 1153 q 0,-428 117,-550 117,-122 477,-122 h 590 V 0 H 1766 Q 1100,0 847,248 594,497 594,1153 V 3053 H 172 v 447 h 422 v 994 z"
               transform="scale(0.015625)" />
          </defs>
          <use
             xlink:href="#DejaVuSans-54"
             id="use385" />
          <use
             xlink:href="#DejaVuSans-68"
             transform="translate(61.083984)"
             id="use387" />
          <use
             xlink:href="#DejaVuSans-65"
             transform="translate(124.46289)"
             id="use389" />
          <use
             xlink:href="#DejaVuSans-20"
             transform="translate(185.98633)"
             id="use391" />
          <use
             xlink:href="#DejaVuSans-73"
             transform="translate(217.77344)"
             id="use393" />
          <use
             xlink:href="#DejaVuSans-69"
             transform="translate(269.87305)"
             id="use395" />
          <use
             xlink:href="#DejaVuSans-6e"
             transform="translate(297.65625)"
             id="use397" />
          <use
             xlink:href="#DejaVuSans-75"
             transform="translate(361.03516)"
             id="use399" />
          <use
             xlink:href="#DejaVuSans-73"
             transform="translate(424.41406)"
             id="use401" />
          <use
             xlink:href="#DejaVuSans-6f"
             transform="translate(476.51367)"
             id="use403" />
          <use
             xlink:href="#DejaVuSans-69"
             transform="translate(537.69531)"
             id="use405" />
          <use
             xlink:href="#DejaVuSans-64"
             transform="translate(565.47852)"
             id="use407" />
          <use
             xlink:href="#DejaVuSans-61"
             transform="translate(628.95508)"
             id="use409" />
          <use
             xlink:href="#DejaVuSans-6c"
             transform="translate(690.23437)"
             id="use411" />
          <use
             xlink:href="#DejaVuSans-20"
             transform="translate(718.01758)"
             id="use413" />
          <use
             xlink:href="#DejaVuSans-66"
             transform="translate(749.80469)"
             id="use415" />
          <use
             xlink:href="#DejaVuSans-75"
             transform="translate(785.00977)"
             id="use417" />
          <use
             xlink:href="#DejaVuSans-6e"
             transform="translate(848.38867)"
             id="use419" />
          <use
             xlink:href="#DejaVuSans-63"
             transform="translate(911.76758)"
             id="use421" />
          <use
             xlink:href="#DejaVuSans-74"
             transform="translate(966.74805)"
             id="use423" />
          <use
             xlink:href="#DejaVuSans-69"
             transform="translate(1005.957)"
             id="use425" />
          <use
             xlink:href="#DejaVuSans-6f"
             transform="translate(1033.7402)"
             id="use427" />
          <use
             xlink:href="#DejaVuSans-6e"
             transform="translate(1094.9219)"
             id="use429" />
          <use
             xlink:href="#DejaVuSans-20"
             transform="translate(1158.3008)"
             id="use431" />
          <use
             xlink:href="#DejaVuSans-28"
             transform="translate(1190.0879)"
             id="use433" />
          <use
             xlink:href="#DejaVuSans-69"
             transform="translate(1229.1016)"
             id="use435" />
          <use
             xlink:href="#DejaVuSans-6e"
             transform="translate(1256.8848)"
             id="use437" />
          <use
             xlink:href="#DejaVuSans-20"
             transform="translate(1320.2637)"
             id="use439" />
          <use
             xlink:href="#DejaVuSans-72"
             transform="translate(1352.0508)"
             id="use441" />
          <use
             xlink:href="#DejaVuSans-61"
             transform="translate(1393.1641)"
             id="use443" />
          <use
             xlink:href="#DejaVuSans-64"
             transform="translate(1454.4434)"
             id="use445" />
          <use
             xlink:href="#DejaVuSans-69"
             transform="translate(1517.9199)"
             id="use447" />
          <use
             xlink:href="#DejaVuSans-61"
             transform="translate(1545.7031)"
             id="use449" />
          <use
             xlink:href="#DejaVuSans-6e"
             transform="translate(1606.9824)"
             id="use451" />
          <use
             xlink:href="#DejaVuSans-29"
             transform="translate(1670.3613)"
             id="use453" />
        </g>
      </g>
    </g>
  </g>
  <defs
     id="defs463">
    <clipPath
       id="p765fba50d3">
      <rect
         x="90"
         y="34.560001"
         width="558"
         height="221.75999"
         id="rect460" />
    </clipPath>
  </defs>
</svg>
